<svg width="75" height="36" viewBox="0 0 75 36" fill="none" xmlns="http://www.w3.org/2000/svg">
<path d="M3.59854 6.99615L2.0824 12.0195C1.87538 12.6771 1.76578 13.1764 1.7536 13.5174C1.7536 13.627 1.77796 13.7244 1.82667 13.8096C1.88756 13.8949 1.98498 13.9375 2.11894 13.9375C2.33814 13.9375 2.56952 13.8583 2.81307 13.7C3.05663 13.5295 3.28801 13.3347 3.50721 13.1155C3.73859 12.8841 3.93952 12.6527 4.11001 12.4214C4.29268 12.1778 4.42663 11.989 4.51188 11.8551L5.04161 12.1656C4.83459 12.5797 4.57277 12.9815 4.25614 13.3712C3.93952 13.7487 3.60463 14.0836 3.25147 14.3759C2.89832 14.6682 2.53907 14.9056 2.17374 15.0883C1.82058 15.2588 1.49787 15.344 1.2056 15.344C0.779379 15.344 0.468845 15.2527 0.274001 15.07C0.0913335 14.8874 0 14.5829 0 14.1567C0 13.9131 0.0426223 13.5843 0.127867 13.1703C0.213112 12.7563 0.359245 12.19 0.566268 11.4715L1.918 6.99615H0.347067L0.584535 6.15588H2.17374L3.12361 3.01401H4.80414L3.85427 6.15588H5.84535L5.58961 6.99615H3.59854Z" fill="#D9D9D9"/>
<path d="M12.4804 9.48042C12.6875 8.85935 12.8336 8.36615 12.9188 8.00082C13.0163 7.63548 13.065 7.31277 13.065 7.03268C13.065 6.75259 13.0163 6.55775 12.9188 6.44815C12.8336 6.32637 12.6814 6.26548 12.4622 6.26548C12.0847 6.26548 11.7132 6.41161 11.3479 6.70388C10.9826 6.99615 10.6111 7.45282 10.2336 8.07388C9.8683 8.69495 9.4847 9.48651 9.08283 10.4486C8.68097 11.4106 8.25474 12.5614 7.80416 13.901L7.38403 15.1614H5.84963L9.46643 2.77654C9.55168 2.47209 9.61866 2.20418 9.66737 1.9728C9.71608 1.74143 9.74044 1.55876 9.74044 1.4248C9.74044 1.18125 9.62475 1.01076 9.39337 0.913336C9.16199 0.815913 8.73577 0.755024 8.1147 0.730669L8.24257 0H11.969L9.88657 7.05095L9.94137 7.08748C10.3311 6.51513 10.7816 6.07673 11.2931 5.77228C11.8046 5.45566 12.3404 5.29735 12.9006 5.29735C13.4851 5.29735 13.9296 5.46783 14.234 5.80881C14.5385 6.14979 14.6907 6.64299 14.6907 7.28842C14.6907 7.69028 14.6298 8.15913 14.508 8.69495C14.3863 9.23078 14.1975 9.84576 13.9418 10.5399C13.6982 11.1975 13.5095 11.715 13.3755 12.0926C13.2416 12.4701 13.1441 12.7623 13.0832 12.9694C13.0224 13.1642 12.9797 13.2982 12.9554 13.3712C12.9432 13.4443 12.9371 13.5052 12.9371 13.5539C12.9371 13.834 13.0528 13.974 13.2842 13.974C13.5277 13.974 13.8261 13.834 14.1792 13.5539C14.5446 13.2616 14.9099 12.8598 15.2752 12.3483L15.7867 12.7319C15.5919 13.0851 15.3483 13.4199 15.056 13.7366C14.776 14.0532 14.4654 14.3333 14.1244 14.5768C13.7956 14.8082 13.4547 14.997 13.1015 15.1431C12.7605 15.2771 12.4378 15.344 12.1334 15.344C11.8046 15.344 11.5671 15.2527 11.421 15.07C11.2748 14.8874 11.2018 14.5951 11.2018 14.1932C11.2018 13.9862 11.22 13.767 11.2566 13.5356C11.2931 13.3043 11.354 13.0181 11.4392 12.6771C11.5367 12.3239 11.6645 11.8977 11.8228 11.3984C11.9933 10.887 12.2125 10.2476 12.4804 9.48042Z" fill="#D9D9D9"/>
<path d="M23.2435 12.7319C22.1841 14.4733 20.881 15.344 19.3345 15.344C18.4942 15.344 17.8488 15.0883 17.3982 14.5768C16.9476 14.0532 16.7223 13.3164 16.7223 12.3666C16.7223 11.5263 16.8928 10.686 17.2338 9.84576C17.5869 9.00549 18.0436 8.25046 18.6038 7.58068C19.164 6.89873 19.7911 6.35073 20.4853 5.93668C21.1794 5.51046 21.8735 5.29735 22.5677 5.29735C23.1522 5.29735 23.6271 5.44957 23.9925 5.75401C24.37 6.04628 24.5587 6.42379 24.5587 6.88655C24.5587 7.31277 24.4004 7.75117 24.0838 8.20175C23.7672 8.65233 23.3349 9.07855 22.7869 9.48042C22.251 9.88229 21.6178 10.2476 20.8871 10.5764C20.1686 10.9052 19.4014 11.161 18.5855 11.3436C18.5612 11.5141 18.5429 11.6846 18.5307 11.8551C18.5185 12.0134 18.5125 12.1778 18.5125 12.3483C18.5125 13.6757 18.9813 14.3394 19.919 14.3394C20.3696 14.3394 20.8323 14.1628 21.3073 13.8096C21.7944 13.4565 22.2449 12.9694 22.659 12.3483L23.2435 12.7319ZM22.2023 6.15588C21.8857 6.15588 21.5569 6.27766 21.2159 6.52121C20.8749 6.76477 20.5461 7.09357 20.2295 7.50762C19.9251 7.90948 19.645 8.37224 19.3893 8.89589C19.1335 9.41953 18.9265 9.96145 18.7682 10.5216C19.3527 10.3633 19.8946 10.1563 20.3939 9.90056C20.8932 9.64482 21.3194 9.35864 21.6726 9.04202C22.0379 8.71322 22.3241 8.37224 22.5311 8.01908C22.7381 7.65375 22.8417 7.28842 22.8417 6.92308C22.8417 6.41161 22.6285 6.15588 22.2023 6.15588Z" fill="#D9D9D9"/>
<path d="M40.8719 12.5299C41.7041 11.4214 42.1972 10.0439 42.1972 8.5511C42.1972 4.88774 39.2275 1.918 35.5641 1.918C34.0714 1.918 32.6938 2.41111 31.5853 3.24331L32.0597 3.71764C33.0438 3.00286 34.2547 2.58131 35.5641 2.58131C38.8611 2.58131 41.5339 5.25407 41.5339 8.5511C41.5339 9.86047 41.1124 11.0714 40.3976 12.0555L40.8719 12.5299Z" fill="#707070"/>
<path d="M31.5842 3.24462L33.5742 5.23455V2.58131L31.5842 3.24462Z" fill="#707070"/>
<path d="M30.0954 4.73216C29.2632 5.84058 28.7701 7.21817 28.7701 8.71093C28.7701 12.3743 31.7398 15.344 35.4032 15.344C36.8959 15.344 38.2735 14.8509 39.3819 14.0187L38.9076 13.5444C37.9235 14.2592 36.7126 14.6807 35.4032 14.6807C32.1062 14.6807 29.4334 12.008 29.4334 8.71093C29.4334 7.40156 29.8549 6.19064 30.5697 5.20649L30.0954 4.73216Z" fill="#707070"/>
<path d="M39.383 14.0174L37.3931 12.0275V14.6807L39.383 14.0174Z" fill="#707070"/>
<path d="M33.582 6.64163C34.043 6.64163 34.4066 6.81405 34.6728 7.15888C34.939 7.50192 35.0721 7.99594 35.0721 8.64093C35.0721 9.28234 34.9408 9.77457 34.6782 10.1176C34.4155 10.4589 34.0501 10.6295 33.582 10.6295C33.1121 10.6295 32.745 10.4589 32.4805 10.1176C32.2179 9.77636 32.0866 9.28502 32.0866 8.64361C32.0866 8.2148 32.1473 7.85121 32.2688 7.55284C32.3903 7.25446 32.5627 7.02845 32.7861 6.87479C33.0094 6.71935 33.2747 6.64163 33.582 6.64163ZM33.582 9.98898C33.8125 9.98898 33.9814 9.88624 34.0886 9.68077C34.1958 9.47352 34.2494 9.1278 34.2494 8.64361C34.2494 8.1487 34.1949 7.79404 34.0859 7.57964C33.9769 7.36524 33.808 7.25804 33.5793 7.25804C33.3507 7.25804 33.18 7.36613 33.0675 7.58232C32.9567 7.79851 32.9013 8.15227 32.9013 8.64361C32.9013 9.12601 32.9567 9.47084 33.0675 9.67809C33.1782 9.88535 33.3498 9.98898 33.582 9.98898Z" fill="#707070"/>
<path d="M35.6083 10.5705V9.9863C35.6083 9.78976 35.6449 9.62003 35.7182 9.47709C35.7914 9.33237 35.8879 9.2073 36.0076 9.10189C36.1291 8.99469 36.2613 8.90089 36.4043 8.82049C36.549 8.74009 36.6937 8.66415 36.8384 8.59269C36.9831 8.52122 37.1154 8.44975 37.2351 8.37828C37.3566 8.30503 37.4539 8.22374 37.5272 8.1344C37.6004 8.04507 37.6371 7.93965 37.6371 7.81816C37.6371 7.66272 37.5826 7.53587 37.4736 7.4376C37.3664 7.33933 37.219 7.2902 37.0314 7.2902C36.8366 7.2902 36.6714 7.34648 36.5356 7.45904C36.3998 7.5716 36.3158 7.74133 36.2837 7.96824H35.5359C35.5395 7.72168 35.5967 7.49834 35.7075 7.29824C35.82 7.09634 35.988 6.93643 36.2113 6.81851C36.4346 6.70059 36.7151 6.64163 37.0528 6.64163C37.3423 6.64163 37.5915 6.69077 37.8005 6.78903C38.0114 6.8873 38.174 7.02398 38.2883 7.19908C38.4027 7.37417 38.4598 7.57875 38.4598 7.8128C38.4598 8.00755 38.4241 8.1755 38.3526 8.31664C38.2812 8.45779 38.1865 8.57839 38.0685 8.67845C37.9506 8.7785 37.8211 8.86605 37.6799 8.94109C37.5388 9.01613 37.3977 9.08581 37.2565 9.15013C37.1171 9.21445 36.9885 9.28056 36.8706 9.34845C36.7527 9.41456 36.658 9.4896 36.5865 9.57357C36.515 9.65755 36.4793 9.75849 36.4793 9.87642V9.91126H38.4545V10.5705H35.6083Z" fill="#707070"/>
<path d="M56.7912 12.5299C57.6234 11.4214 58.1166 10.0439 58.1166 8.5511C58.1166 4.88774 55.1468 1.918 51.4835 1.918C49.9907 1.918 48.6131 2.41111 47.5047 3.24331L47.979 3.71764C48.9632 3.00286 50.1741 2.58131 51.4835 2.58131C54.7805 2.58131 57.4532 5.25407 57.4532 8.5511C57.4532 9.86047 57.0317 11.0714 56.3169 12.0555L56.7912 12.5299Z" fill="#707070"/>
<path d="M47.5036 3.24462L49.4935 5.23455V2.58131L47.5036 3.24462Z" fill="#707070"/>
<path d="M46.0147 4.73216C45.1825 5.84058 44.6894 7.21817 44.6894 8.71093C44.6894 12.3743 47.6592 15.344 51.3225 15.344C52.8153 15.344 54.1929 14.8509 55.3013 14.0187L54.827 13.5444C53.8428 14.2592 52.6319 14.6807 51.3225 14.6807C48.0255 14.6807 45.3527 12.008 45.3527 8.71093C45.3527 7.40156 45.7743 6.19064 46.4891 5.20649L46.0147 4.73216Z" fill="#707070"/>
<path d="M55.3024 14.0174L53.3125 12.0275V14.6807L55.3024 14.0174Z" fill="#707070"/>
<path d="M49.5016 6.64163C49.9625 6.64163 50.3261 6.81405 50.5924 7.15888C50.8586 7.50192 50.9917 7.99594 50.9917 8.64093C50.9917 9.28234 50.8604 9.77457 50.5977 10.1176C50.3351 10.4589 49.9697 10.6295 49.5016 10.6295C49.0317 10.6295 48.6645 10.4589 48.4001 10.1176C48.1375 9.77636 48.0061 9.28502 48.0061 8.64361C48.0061 8.2148 48.0669 7.85121 48.1884 7.55284C48.3099 7.25446 48.4823 7.02845 48.7056 6.87479C48.929 6.71935 49.1943 6.64163 49.5016 6.64163ZM49.5016 9.98898C49.7321 9.98898 49.9009 9.88624 50.0081 9.68077C50.1153 9.47352 50.1689 9.1278 50.1689 8.64361C50.1689 8.1487 50.1144 7.79404 50.0054 7.57964C49.8964 7.36524 49.7276 7.25804 49.4989 7.25804C49.2702 7.25804 49.0996 7.36613 48.987 7.58232C48.8762 7.79851 48.8209 8.15227 48.8209 8.64361C48.8209 9.12601 48.8762 9.47084 48.987 9.67809C49.0978 9.88535 49.2693 9.98898 49.5016 9.98898Z" fill="#707070"/>
<path d="M51.5278 10.5705V9.9863C51.5278 9.78976 51.5645 9.62003 51.6377 9.47709C51.711 9.33237 51.8075 9.2073 51.9272 9.10189C52.0487 8.99469 52.1809 8.90089 52.3238 8.82049C52.4685 8.74009 52.6133 8.66415 52.758 8.59269C52.9027 8.52122 53.0349 8.44975 53.1546 8.37828C53.2761 8.30503 53.3735 8.22374 53.4467 8.1344C53.52 8.04507 53.5566 7.93965 53.5566 7.81816C53.5566 7.66272 53.5021 7.53587 53.3931 7.4376C53.2859 7.33933 53.1385 7.2902 52.9509 7.2902C52.7562 7.2902 52.5909 7.34648 52.4551 7.45904C52.3193 7.5716 52.2354 7.74133 52.2032 7.96824H51.4555C51.4591 7.72168 51.5162 7.49834 51.627 7.29824C51.7396 7.09634 51.9075 6.93643 52.1309 6.81851C52.3542 6.70059 52.6347 6.64163 52.9724 6.64163C53.2618 6.64163 53.5111 6.69077 53.7201 6.78903C53.9309 6.8873 54.0935 7.02398 54.2079 7.19908C54.3222 7.37417 54.3794 7.57875 54.3794 7.8128C54.3794 8.00755 54.3437 8.1755 54.2722 8.31664C54.2007 8.45779 54.106 8.57839 53.9881 8.67845C53.8702 8.7785 53.7406 8.86605 53.5995 8.94109C53.4584 9.01613 53.3172 9.08581 53.1761 9.15013C53.0367 9.21445 52.9081 9.28056 52.7901 9.34845C52.6722 9.41456 52.5775 9.4896 52.5061 9.57357C52.4346 9.65755 52.3989 9.75849 52.3989 9.87642V9.91126H54.374V10.5705H51.5278Z" fill="#707070"/>
<path d="M72.7107 12.5299C73.5429 11.4214 74.036 10.0439 74.036 8.5511C74.036 4.88774 71.0663 1.918 67.403 1.918C65.9102 1.918 64.5326 2.41111 63.4242 3.24331L63.8985 3.71764C64.8827 3.00286 66.0936 2.58131 67.403 2.58131C70.7 2.58131 73.3727 5.25407 73.3727 8.5511C73.3727 9.86047 72.9512 11.0714 72.2364 12.0555L72.7107 12.5299Z" fill="#707070"/>
<path d="M63.4231 3.24462L65.413 5.23455V2.58131L63.4231 3.24462Z" fill="#707070"/>
<path d="M61.9342 4.73216C61.102 5.84058 60.6089 7.21817 60.6089 8.71093C60.6089 12.3743 63.5787 15.344 67.242 15.344C68.7348 15.344 70.1124 14.8509 71.2208 14.0187L70.7465 13.5444C69.7623 14.2592 68.5514 14.6807 67.242 14.6807C63.945 14.6807 61.2722 12.008 61.2722 8.71093C61.2722 7.40156 61.6938 6.19064 62.4086 5.20649L61.9342 4.73216Z" fill="#707070"/>
<path d="M71.2219 14.0174L69.232 12.0275V14.6807L71.2219 14.0174Z" fill="#707070"/>
<path d="M65.4208 6.64163C65.8818 6.64163 66.2454 6.81405 66.5116 7.15888C66.7778 7.50192 66.9109 7.99594 66.9109 8.64093C66.9109 9.28234 66.7796 9.77457 66.5169 10.1176C66.2543 10.4589 65.8889 10.6295 65.4208 10.6295C64.9509 10.6295 64.5837 10.4589 64.3193 10.1176C64.0567 9.77636 63.9254 9.28502 63.9254 8.64361C63.9254 8.2148 63.9861 7.85121 64.1076 7.55284C64.2291 7.25446 64.4015 7.02845 64.6248 6.87479C64.8482 6.71935 65.1135 6.64163 65.4208 6.64163ZM65.4208 9.98898C65.6513 9.98898 65.8201 9.88624 65.9273 9.68077C66.0345 9.47352 66.0881 9.1278 66.0881 8.64361C66.0881 8.1487 66.0336 7.79404 65.9246 7.57964C65.8157 7.36524 65.6468 7.25804 65.4181 7.25804C65.1894 7.25804 65.0188 7.36613 64.9062 7.58232C64.7955 7.79851 64.7401 8.15227 64.7401 8.64361C64.7401 9.12601 64.7955 9.47084 64.9062 9.67809C65.017 9.88535 65.1885 9.98898 65.4208 9.98898Z" fill="#707070"/>
<path d="M67.4471 10.5705V9.9863C67.4471 9.78976 67.4837 9.62003 67.5569 9.47709C67.6302 9.33237 67.7267 9.2073 67.8464 9.10189C67.9679 8.99469 68.1001 8.90089 68.243 8.82049C68.3878 8.74009 68.5325 8.66415 68.6772 8.59269C68.8219 8.52122 68.9541 8.44975 69.0738 8.37828C69.1953 8.30503 69.2927 8.22374 69.366 8.1344C69.4392 8.04507 69.4758 7.93965 69.4758 7.81816C69.4758 7.66272 69.4213 7.53587 69.3124 7.4376C69.2052 7.33933 69.0578 7.2902 68.8702 7.2902C68.6754 7.2902 68.5101 7.34648 68.3744 7.45904C68.2386 7.5716 68.1546 7.74133 68.1224 7.96824H67.3747C67.3783 7.72168 67.4355 7.49834 67.5462 7.29824C67.6588 7.09634 67.8267 6.93643 68.0501 6.81851C68.2734 6.70059 68.5539 6.64163 68.8916 6.64163C69.181 6.64163 69.4303 6.69077 69.6393 6.78903C69.8502 6.8873 70.0127 7.02398 70.1271 7.19908C70.2414 7.37417 70.2986 7.57875 70.2986 7.8128C70.2986 8.00755 70.2629 8.1755 70.1914 8.31664C70.1199 8.45779 70.0252 8.57839 69.9073 8.67845C69.7894 8.7785 69.6599 8.86605 69.5187 8.94109C69.3776 9.01613 69.2364 9.08581 69.0953 9.15013C68.9559 9.21445 68.8273 9.28056 68.7094 9.34845C68.5914 9.41456 68.4967 9.4896 68.4253 9.57357C68.3538 9.65755 68.3181 9.75849 68.3181 9.87642V9.91126H70.2932V10.5705H67.4471Z" fill="#707070"/>
<path d="M7.56284 36C6.52574 36 5.55246 35.9043 4.64301 35.7128C3.73355 35.5373 2.92781 35.2421 2.22577 34.8273C1.53969 34.4124 0.99721 33.87 0.598326 33.1998C0.199442 32.5138 0 31.6761 0 30.6869C0 30.623 0 30.5512 0 30.4715C0 30.3917 0.00797766 30.3279 0.023933 30.28H4.16435C4.16435 30.3279 4.15637 30.3917 4.14041 30.4715C4.14041 30.5353 4.14041 30.5911 4.14041 30.639C4.14041 31.1496 4.26806 31.5644 4.52334 31.8835C4.79458 32.1867 5.16953 32.41 5.6482 32.5536C6.12686 32.6813 6.68529 32.7451 7.32351 32.7451C7.67453 32.7451 8.00161 32.7292 8.30476 32.6972C8.60791 32.6653 8.87916 32.6095 9.11849 32.5297C9.35782 32.4499 9.56524 32.3542 9.74074 32.2425C9.93221 32.1149 10.0678 31.9713 10.1476 31.8117C10.2433 31.6362 10.2912 31.4368 10.2912 31.2134C10.2912 30.8464 10.1476 30.5433 9.86041 30.3039C9.58917 30.0646 9.21422 29.8652 8.73556 29.7056C8.27285 29.5461 7.74633 29.3945 7.15598 29.2509C6.56563 29.1073 5.95135 28.9557 5.31313 28.7962C4.67492 28.6366 4.06064 28.4372 3.47029 28.1978C2.87994 27.9585 2.34544 27.6553 1.86678 27.2884C1.40407 26.9214 1.02912 26.4667 0.741924 25.9242C0.470683 25.3658 0.335062 24.6956 0.335062 23.9138C0.335062 23.0522 0.518549 22.3103 0.885522 21.688C1.2525 21.0498 1.75509 20.5313 2.3933 20.1324C3.04747 19.7335 3.79737 19.4463 4.64301 19.2708C5.48864 19.0793 6.39012 18.9836 7.34744 18.9836C8.28881 18.9836 9.16635 19.0793 9.98007 19.2708C10.8098 19.4623 11.5437 19.7654 12.1819 20.1803C12.8201 20.5791 13.3147 21.0897 13.6658 21.712C14.0327 22.3183 14.2242 23.0522 14.2402 23.9138V24.201H10.1237V24.0335C10.1237 23.6665 10.02 23.3474 9.81254 23.0762C9.62108 22.789 9.3259 22.5656 8.92702 22.406C8.52814 22.2305 8.03352 22.1428 7.44317 22.1428C6.85282 22.1428 6.35023 22.1986 5.93539 22.3103C5.53651 22.422 5.22538 22.5815 5.002 22.789C4.79458 22.9964 4.69087 23.2437 4.69087 23.5309C4.69087 23.8819 4.82649 24.1691 5.09774 24.3925C5.38493 24.6159 5.76786 24.8073 6.24652 24.9669C6.72518 25.1264 7.25969 25.278 7.85003 25.4216C8.44038 25.5492 9.04669 25.6928 9.66894 25.8524C10.3072 25.996 10.9214 26.1875 11.5118 26.4268C12.1021 26.6502 12.6366 26.9453 13.1153 27.3123C13.594 27.6633 13.9689 28.1021 14.2402 28.6286C14.5274 29.1552 14.6709 29.7934 14.6709 30.5433C14.6709 31.8516 14.3598 32.9047 13.7376 33.7024C13.1313 34.5002 12.2856 35.0826 11.2007 35.4495C10.1316 35.8165 8.91904 36 7.56284 36Z" fill="#D9D9D9"/>
<path d="M17.4296 35.7128V19.2708H21.7136V35.7128H17.4296Z" fill="#D9D9D9"/>
<path d="M25.306 35.7128V19.2708H32.1748C33.9618 19.2708 35.4696 19.566 36.6981 20.1563C37.9426 20.7467 38.884 21.6482 39.5222 22.8608C40.1764 24.0574 40.5035 25.5971 40.5035 27.4798C40.5035 29.3466 40.1764 30.8943 39.5222 32.1228C38.884 33.3355 37.9426 34.2369 36.6981 34.8273C35.4696 35.4176 33.9618 35.7128 32.1748 35.7128H25.306ZM29.59 32.3622H32.1269C32.797 32.3622 33.3794 32.2664 33.874 32.075C34.3686 31.8835 34.7835 31.6043 35.1185 31.2373C35.4536 30.8704 35.7009 30.4156 35.8605 29.8731C36.02 29.3307 36.0998 28.7084 36.0998 28.0064V27.0012C36.0998 26.2832 36.02 25.653 35.8605 25.1105C35.7009 24.568 35.4536 24.1133 35.1185 23.7463C34.7835 23.3793 34.3686 23.1001 33.874 22.9086C33.3794 22.7172 32.797 22.6214 32.1269 22.6214H29.59V32.3622Z" fill="#D9D9D9"/>
<path d="M43.4205 35.7128V19.2708H56.9905V22.6214H47.7045V25.7088H55.8178V28.9876H47.7045V32.3622H57.1581V35.7128H43.4205Z" fill="#D9D9D9"/>
<path d="M66.928 36C65.8909 36 64.9176 35.9043 64.0081 35.7128C63.0987 35.5373 62.2929 35.2421 61.5909 34.8273C60.9048 34.4124 60.3623 33.87 59.9635 33.1998C59.5646 32.5138 59.3651 31.6761 59.3651 30.6869C59.3651 30.623 59.3651 30.5512 59.3651 30.4715C59.3651 30.3917 59.3731 30.3279 59.3891 30.28H63.5295C63.5295 30.3279 63.5215 30.3917 63.5056 30.4715C63.5056 30.5353 63.5056 30.5911 63.5056 30.639C63.5056 31.1496 63.6332 31.5644 63.8885 31.8835C64.1597 32.1867 64.5347 32.41 65.0133 32.5536C65.492 32.6813 66.0504 32.7451 66.6886 32.7451C67.0397 32.7451 67.3668 32.7292 67.6699 32.6972C67.9731 32.6653 68.2443 32.6095 68.4836 32.5297C68.723 32.4499 68.9304 32.3542 69.1059 32.2425C69.2973 32.1149 69.433 31.9713 69.5127 31.8117C69.6085 31.6362 69.6563 31.4368 69.6563 31.2134C69.6563 30.8464 69.5127 30.5433 69.2255 30.3039C68.9543 30.0646 68.5794 29.8652 68.1007 29.7056C67.638 29.5461 67.1115 29.3945 66.5211 29.2509C65.9308 29.1073 65.3165 28.9557 64.6783 28.7962C64.0401 28.6366 63.4258 28.4372 62.8354 28.1978C62.2451 27.9585 61.7106 27.6553 61.2319 27.2884C60.7692 26.9214 60.3943 26.4667 60.1071 25.9242C59.8358 25.3658 59.7002 24.6956 59.7002 23.9138C59.7002 23.0522 59.8837 22.3103 60.2507 21.688C60.6176 21.0498 61.1202 20.5313 61.7584 20.1324C62.4126 19.7335 63.1625 19.4463 64.0081 19.2708C64.8538 19.0793 65.7553 18.9836 66.7126 18.9836C67.6539 18.9836 68.5315 19.0793 69.3452 19.2708C70.1749 19.4623 70.9088 19.7654 71.547 20.1803C72.1853 20.5791 72.6799 21.0897 73.0309 21.712C73.3979 22.3183 73.5893 23.0522 73.6053 23.9138V24.201H69.4888V24.0335C69.4888 23.6665 69.3851 23.3474 69.1777 23.0762C68.9862 22.789 68.691 22.5656 68.2922 22.406C67.8933 22.2305 67.3987 22.1428 66.8083 22.1428C66.218 22.1428 65.7154 22.1986 65.3005 22.3103C64.9016 22.422 64.5905 22.5815 64.3671 22.789C64.1597 22.9964 64.056 23.2437 64.056 23.5309C64.056 23.8819 64.1916 24.1691 64.4629 24.3925C64.7501 24.6159 65.133 24.8073 65.6117 24.9669C66.0903 25.1264 66.6248 25.278 67.2152 25.4216C67.8055 25.5492 68.4118 25.6928 69.0341 25.8524C69.6723 25.996 70.2866 26.1875 70.8769 26.4268C71.4673 26.6502 72.0018 26.9453 72.4804 27.3123C72.9591 27.6633 73.3341 28.1021 73.6053 28.6286C73.8925 29.1552 74.0361 29.7934 74.0361 30.5433C74.0361 31.8516 73.725 32.9047 73.1027 33.7024C72.4964 34.5002 71.6508 35.0826 70.5658 35.4495C69.4968 35.8165 68.2842 36 66.928 36Z" fill="#D9D9D9"/>
</svg>
